<svg xmlns="http://www.w3.org/2000/svg" viewBox="0 0 200 200">
  <!-- Night sky ambiance -->
  <circle cx="20" cy="25" r="1.5" fill="#f5e6d3" opacity="0.7"/>
  <circle cx="50" cy="15" r="1" fill="#f5e6d3" opacity="0.5"/>
  <circle cx="150" cy="18" r="1.5" fill="#f5e6d3" opacity="0.7"/>
  <circle cx="180" cy="10" r="1" fill="#f5e6d3" opacity="0.5"/>
  <circle cx="95" cy="8" r="1" fill="#f5e6d3" opacity="0.4"/>

  <!-- String light cables -->
  <path d="M10 50 Q55 58 100 52 Q145 46 190 54" stroke="#c4af7c" stroke-width="1.5" fill="none" opacity="0.5"/>
  <path d="M5 68 Q55 76 100 70 Q145 64 195 72" stroke="#c4af7c" stroke-width="1.5" fill="none" opacity="0.45"/>

  <!-- String light bulbs - top row -->
  <circle cx="22" cy="52" r="5" fill="#c4af7c" opacity="0.9"/>
  <circle cx="22" cy="52" r="8" fill="#c4af7c" opacity="0.2"/>
  <circle cx="42" cy="56" r="5" fill="#a18f5c" opacity="0.85"/>
  <circle cx="42" cy="56" r="8" fill="#a18f5c" opacity="0.18"/>
  <circle cx="62" cy="54" r="5" fill="#c47a5c" opacity="0.85"/>
  <circle cx="62" cy="54" r="8" fill="#c47a5c" opacity="0.18"/>
  <circle cx="82" cy="52" r="5" fill="#c4af7c" opacity="0.9"/>
  <circle cx="82" cy="52" r="8" fill="#c4af7c" opacity="0.2"/>
  <circle cx="102" cy="53" r="5" fill="#8a9f7b" opacity="0.85"/>
  <circle cx="102" cy="53" r="8" fill="#8a9f7b" opacity="0.18"/>
  <circle cx="122" cy="50" r="5" fill="#c47a5c" opacity="0.85"/>
  <circle cx="122" cy="50" r="8" fill="#c47a5c" opacity="0.18"/>
  <circle cx="142" cy="52" r="5" fill="#c4af7c" opacity="0.9"/>
  <circle cx="142" cy="52" r="8" fill="#c4af7c" opacity="0.2"/>
  <circle cx="162" cy="54" r="5" fill="#a18f5c" opacity="0.85"/>
  <circle cx="162" cy="54" r="8" fill="#a18f5c" opacity="0.18"/>
  <circle cx="182" cy="52" r="5" fill="#c47a5c" opacity="0.85"/>
  <circle cx="182" cy="52" r="8" fill="#c47a5c" opacity="0.18"/>

  <!-- String light bulbs - second row -->
  <circle cx="32" cy="70" r="4" fill="#a18f5c" opacity="0.8"/>
  <circle cx="32" cy="70" r="7" fill="#a18f5c" opacity="0.15"/>
  <circle cx="55" cy="73" r="4" fill="#c4af7c" opacity="0.8"/>
  <circle cx="55" cy="73" r="7" fill="#c4af7c" opacity="0.15"/>
  <circle cx="78" cy="70" r="4" fill="#c47a5c" opacity="0.8"/>
  <circle cx="78" cy="70" r="7" fill="#c47a5c" opacity="0.15"/>
  <circle cx="100" cy="71" r="4" fill="#8a9f7b" opacity="0.8"/>
  <circle cx="100" cy="71" r="7" fill="#8a9f7b" opacity="0.15"/>
  <circle cx="122" cy="70" r="4" fill="#c4af7c" opacity="0.8"/>
  <circle cx="122" cy="70" r="7" fill="#c4af7c" opacity="0.15"/>
  <circle cx="145" cy="73" r="4" fill="#a18f5c" opacity="0.8"/>
  <circle cx="145" cy="73" r="7" fill="#a18f5c" opacity="0.15"/>
  <circle cx="168" cy="70" r="4" fill="#c47a5c" opacity="0.8"/>
  <circle cx="168" cy="70" r="7" fill="#c47a5c" opacity="0.15"/>

  <!-- Left food stall -->
  <polygon points="15,160 55,90 95,160" fill="#a18f5c" opacity="0.4"/>
  <polygon points="20,160 55,96 90,160" fill="#a18f5c" opacity="0.2"/>
  <!-- Stall front -->
  <rect x="20" y="140" width="70" height="30" rx="2" fill="#c47a5c" opacity="0.3"/>
  <!-- Counter -->
  <rect x="18" y="135" width="74" height="8" rx="2" fill="#a18f5c" opacity="0.5"/>
  <!-- Food items on counter -->
  <circle cx="35" cy="134" r="5" fill="#c4af7c" opacity="0.7"/>
  <circle cx="50" cy="133" r="6" fill="#c47a5c" opacity="0.7"/>
  <circle cx="65" cy="134" r="5" fill="#8a9f7b" opacity="0.7"/>
  <!-- Steam from wok -->
  <path d="M50 128 Q47 118 51 110" stroke="#f5e6d3" stroke-width="2" fill="none" stroke-linecap="round" opacity="0.3"/>
  <path d="M58 126 Q56 116 60 108" stroke="#f5e6d3" stroke-width="2" fill="none" stroke-linecap="round" opacity="0.25"/>

  <!-- Right food stall -->
  <polygon points="105,160 145,90 185,160" fill="#2d7d7d" opacity="0.4"/>
  <polygon points="110,160 145,96 180,160" fill="#2d7d7d" opacity="0.2"/>
  <rect x="110" y="140" width="70" height="30" rx="2" fill="#2d7d7d" opacity="0.3"/>
  <rect x="108" y="135" width="74" height="8" rx="2" fill="#3d9d9d" opacity="0.4"/>
  <circle cx="125" cy="134" r="5" fill="#c4af7c" opacity="0.7"/>
  <circle cx="140" cy="133" r="6" fill="#a18f5c" opacity="0.7"/>
  <circle cx="155" cy="134" r="5" fill="#c47a5c" opacity="0.7"/>
  <path d="M140 128 Q137 118 141 110" stroke="#f5e6d3" stroke-width="2" fill="none" stroke-linecap="round" opacity="0.3"/>
  <path d="M148 126 Q146 116 150 108" stroke="#f5e6d3" stroke-width="2" fill="none" stroke-linecap="round" opacity="0.25"/>

  <!-- Ground -->
  <line x1="0" y1="170" x2="200" y2="170" stroke="#a18f5c" stroke-width="1" opacity="0.2"/>
  <!-- People silhouettes -->
  <circle cx="100" cy="150" r="6" fill="#f5e6d3" opacity="0.35"/>
  <ellipse cx="100" cy="165" rx="5" ry="8" fill="#f5e6d3" opacity="0.25"/>
</svg>
